<mxfile host="65bd71144e">
    <diagram id="-PhNIhSesuPEKfwEsflh" name="Page-1">
        <mxGraphModel dx="948" dy="713" grid="1" gridSize="10" guides="1" tooltips="1" connect="1" arrows="1" fold="1" page="1" pageScale="1" pageWidth="827" pageHeight="1169" math="0" shadow="0">
            <root>
                <mxCell id="0"/>
                <mxCell id="1" parent="0"/>
                <mxCell id="44" value="" style="group" parent="1" vertex="1" connectable="0">
                    <mxGeometry x="40" y="190" width="794" height="620" as="geometry"/>
                </mxCell>
                <mxCell id="42" value="" style="rounded=1;whiteSpace=wrap;html=1;" parent="44" vertex="1">
                    <mxGeometry width="794" height="620" as="geometry"/>
                </mxCell>
                <mxCell id="24" value="MallardDuck" style="swimlane;fontStyle=0;childLayout=stackLayout;horizontal=1;startSize=26;fillColor=none;horizontalStack=0;resizeParent=1;resizeParentMax=0;resizeLast=0;collapsible=1;marginBottom=0;" parent="44" vertex="1">
                    <mxGeometry x="66.16666666666667" y="490" width="132.33333333333334" height="78" as="geometry"/>
                </mxCell>
                <mxCell id="25" value="+ display: void" style="text;strokeColor=none;fillColor=none;align=left;verticalAlign=top;spacingLeft=4;spacingRight=4;overflow=hidden;rotatable=0;points=[[0,0.5],[1,0.5]];portConstraint=eastwest;" parent="24" vertex="1">
                    <mxGeometry y="26" width="132.33333333333334" height="26" as="geometry"/>
                </mxCell>
                <mxCell id="26" value="// Looks like a mallard" style="text;strokeColor=none;fillColor=none;align=left;verticalAlign=top;spacingLeft=4;spacingRight=4;overflow=hidden;rotatable=0;points=[[0,0.5],[1,0.5]];portConstraint=eastwest;" parent="24" vertex="1">
                    <mxGeometry y="52" width="132.33333333333334" height="26" as="geometry"/>
                </mxCell>
                <mxCell id="28" value="" style="group" parent="44" vertex="1" connectable="0">
                    <mxGeometry x="287.35238095238094" y="60" width="245.76190476190476" height="266" as="geometry"/>
                </mxCell>
                <mxCell id="4" value="" style="swimlane;fontStyle=1;align=center;verticalAlign=top;childLayout=stackLayout;horizontal=1;startSize=0;horizontalStack=0;resizeParent=1;resizeParentMax=0;resizeLast=0;collapsible=1;marginBottom=0;container=0;" parent="28" vertex="1">
                    <mxGeometry width="245.76190476190476" height="266" as="geometry">
                        <mxRectangle x="50" y="220" width="120" height="40" as="alternateBounds"/>
                    </mxGeometry>
                </mxCell>
                <mxCell id="8" value="«interface»&lt;br&gt;&lt;b&gt;IDuck&lt;/b&gt;" style="html=1;container=0;" parent="28" vertex="1">
                    <mxGeometry width="245.76190476190476" height="50" as="geometry"/>
                </mxCell>
                <mxCell id="5" value="+ flyBehavior: FlyBehavior&#10;" style="text;strokeColor=none;fillColor=none;align=left;verticalAlign=top;spacingLeft=4;spacingRight=4;overflow=hidden;rotatable=0;points=[[0,0.5],[1,0.5]];portConstraint=eastwest;container=0;" parent="28" vertex="1">
                    <mxGeometry y="50" width="245.76190476190476" height="26" as="geometry"/>
                </mxCell>
                <mxCell id="9" value="+ quackBehavior: QuackBehavior&#10;" style="text;strokeColor=none;fillColor=none;align=left;verticalAlign=top;spacingLeft=4;spacingRight=4;overflow=hidden;rotatable=0;points=[[0,0.5],[1,0.5]];portConstraint=eastwest;container=0;" parent="28" vertex="1">
                    <mxGeometry y="76" width="245.76190476190476" height="26" as="geometry"/>
                </mxCell>
                <mxCell id="6" value="" style="line;strokeWidth=1;fillColor=none;align=left;verticalAlign=middle;spacingTop=-1;spacingLeft=3;spacingRight=3;rotatable=0;labelPosition=right;points=[];portConstraint=eastwest;strokeColor=inherit;container=0;" parent="28" vertex="1">
                    <mxGeometry y="102" width="245.76190476190476" height="8" as="geometry"/>
                </mxCell>
                <mxCell id="7" value="+ swim(): void" style="text;strokeColor=none;fillColor=none;align=left;verticalAlign=top;spacingLeft=4;spacingRight=4;overflow=hidden;rotatable=0;points=[[0,0.5],[1,0.5]];portConstraint=eastwest;container=0;" parent="28" vertex="1">
                    <mxGeometry y="110" width="245.76190476190476" height="26" as="geometry"/>
                </mxCell>
                <mxCell id="10" value="+ display(): void" style="text;strokeColor=none;fillColor=none;align=left;verticalAlign=top;spacingLeft=4;spacingRight=4;overflow=hidden;rotatable=0;points=[[0,0.5],[1,0.5]];portConstraint=eastwest;container=0;" parent="28" vertex="1">
                    <mxGeometry y="136" width="245.76190476190476" height="26" as="geometry"/>
                </mxCell>
                <mxCell id="11" value="+ setFlyBehavior(): void" style="text;strokeColor=none;fillColor=none;align=left;verticalAlign=top;spacingLeft=4;spacingRight=4;overflow=hidden;rotatable=0;points=[[0,0.5],[1,0.5]];portConstraint=eastwest;container=0;" parent="28" vertex="1">
                    <mxGeometry y="162" width="245.76190476190476" height="26" as="geometry"/>
                </mxCell>
                <mxCell id="12" value="+ setQuackBehavior(): void" style="text;strokeColor=none;fillColor=none;align=left;verticalAlign=top;spacingLeft=4;spacingRight=4;overflow=hidden;rotatable=0;points=[[0,0.5],[1,0.5]];portConstraint=eastwest;container=0;" parent="28" vertex="1">
                    <mxGeometry y="188" width="245.76190476190476" height="26" as="geometry"/>
                </mxCell>
                <mxCell id="13" value="+ performQuackBehavior(): void" style="text;strokeColor=none;fillColor=none;align=left;verticalAlign=top;spacingLeft=4;spacingRight=4;overflow=hidden;rotatable=0;points=[[0,0.5],[1,0.5]];portConstraint=eastwest;container=0;" parent="28" vertex="1">
                    <mxGeometry y="214" width="245.76190476190476" height="26" as="geometry"/>
                </mxCell>
                <mxCell id="14" value="+ performQuackBehavior(): void" style="text;strokeColor=none;fillColor=none;align=left;verticalAlign=top;spacingLeft=4;spacingRight=4;overflow=hidden;rotatable=0;points=[[0,0.5],[1,0.5]];portConstraint=eastwest;container=0;" parent="28" vertex="1">
                    <mxGeometry y="240" width="245.76190476190476" height="26" as="geometry"/>
                </mxCell>
                <mxCell id="29" value="RedHeadDuck" style="swimlane;fontStyle=0;childLayout=stackLayout;horizontal=1;startSize=26;fillColor=none;horizontalStack=0;resizeParent=1;resizeParentMax=0;resizeLast=0;collapsible=1;marginBottom=0;" parent="44" vertex="1">
                    <mxGeometry x="226.85714285714286" y="490" width="132.33333333333334" height="78" as="geometry"/>
                </mxCell>
                <mxCell id="30" value="+ display: void" style="text;strokeColor=none;fillColor=none;align=left;verticalAlign=top;spacingLeft=4;spacingRight=4;overflow=hidden;rotatable=0;points=[[0,0.5],[1,0.5]];portConstraint=eastwest;" parent="29" vertex="1">
                    <mxGeometry y="26" width="132.33333333333334" height="26" as="geometry"/>
                </mxCell>
                <mxCell id="31" value="// Looks like a redhead" style="text;strokeColor=none;fillColor=none;align=left;verticalAlign=top;spacingLeft=4;spacingRight=4;overflow=hidden;rotatable=0;points=[[0,0.5],[1,0.5]];portConstraint=eastwest;" parent="29" vertex="1">
                    <mxGeometry y="52" width="132.33333333333334" height="26" as="geometry"/>
                </mxCell>
                <mxCell id="32" value="RubberDuck" style="swimlane;fontStyle=0;childLayout=stackLayout;horizontal=1;startSize=26;fillColor=none;horizontalStack=0;resizeParent=1;resizeParentMax=0;resizeLast=0;collapsible=1;marginBottom=0;" parent="44" vertex="1">
                    <mxGeometry x="378.0952380952381" y="490" width="170.14285714285714" height="78" as="geometry"/>
                </mxCell>
                <mxCell id="33" value="+ display: void" style="text;strokeColor=none;fillColor=none;align=left;verticalAlign=top;spacingLeft=4;spacingRight=4;overflow=hidden;rotatable=0;points=[[0,0.5],[1,0.5]];portConstraint=eastwest;" parent="32" vertex="1">
                    <mxGeometry y="26" width="170.14285714285714" height="26" as="geometry"/>
                </mxCell>
                <mxCell id="34" value="// Looks like a rubber duck" style="text;strokeColor=none;fillColor=none;align=left;verticalAlign=top;spacingLeft=4;spacingRight=4;overflow=hidden;rotatable=0;points=[[0,0.5],[1,0.5]];portConstraint=eastwest;" parent="32" vertex="1">
                    <mxGeometry y="52" width="170.14285714285714" height="26" as="geometry"/>
                </mxCell>
                <mxCell id="35" value="DecoyDuck" style="swimlane;fontStyle=0;childLayout=stackLayout;horizontal=1;startSize=26;fillColor=none;horizontalStack=0;resizeParent=1;resizeParentMax=0;resizeLast=0;collapsible=1;marginBottom=0;" parent="44" vertex="1">
                    <mxGeometry x="567.1428571428571" y="490" width="170.14285714285714" height="78" as="geometry"/>
                </mxCell>
                <mxCell id="36" value="+ display: void" style="text;strokeColor=none;fillColor=none;align=left;verticalAlign=top;spacingLeft=4;spacingRight=4;overflow=hidden;rotatable=0;points=[[0,0.5],[1,0.5]];portConstraint=eastwest;" parent="35" vertex="1">
                    <mxGeometry y="26" width="170.14285714285714" height="26" as="geometry"/>
                </mxCell>
                <mxCell id="37" value="// Looks like a decoy duck" style="text;strokeColor=none;fillColor=none;align=left;verticalAlign=top;spacingLeft=4;spacingRight=4;overflow=hidden;rotatable=0;points=[[0,0.5],[1,0.5]];portConstraint=eastwest;" parent="35" vertex="1">
                    <mxGeometry y="52" width="170.14285714285714" height="26" as="geometry"/>
                </mxCell>
                <mxCell id="38" value="IS-A" style="html=1;verticalAlign=bottom;endArrow=block;exitX=0.5;exitY=0;exitDx=0;exitDy=0;entryX=-0.014;entryY=1.104;entryDx=0;entryDy=0;entryPerimeter=0;" parent="44" source="24" target="14" edge="1">
                    <mxGeometry width="80" relative="1" as="geometry">
                        <mxPoint x="557.6904761904761" y="270" as="sourcePoint"/>
                        <mxPoint x="633.3095238095237" y="270" as="targetPoint"/>
                    </mxGeometry>
                </mxCell>
                <mxCell id="39" value="IS-A" style="html=1;verticalAlign=bottom;endArrow=block;exitX=0.414;exitY=-0.04;exitDx=0;exitDy=0;entryX=0.251;entryY=1.231;entryDx=0;entryDy=0;entryPerimeter=0;exitPerimeter=0;" parent="44" source="29" target="14" edge="1">
                    <mxGeometry width="80" relative="1" as="geometry">
                        <mxPoint x="141.78571428571428" y="500" as="sourcePoint"/>
                        <mxPoint x="261.226" y="338.70399999999995" as="targetPoint"/>
                    </mxGeometry>
                </mxCell>
                <mxCell id="40" value="IS-A" style="html=1;verticalAlign=bottom;endArrow=block;exitX=0.5;exitY=0;exitDx=0;exitDy=0;entryX=0.7;entryY=1.295;entryDx=0;entryDy=0;entryPerimeter=0;" parent="44" source="32" target="14" edge="1">
                    <mxGeometry width="80" relative="1" as="geometry">
                        <mxPoint x="291.09552380952385" y="496.88" as="sourcePoint"/>
                        <mxPoint x="306.20042857142863" y="339.71799999999996" as="targetPoint"/>
                    </mxGeometry>
                </mxCell>
                <mxCell id="41" value="IS-A" style="html=1;verticalAlign=bottom;endArrow=block;exitX=0.478;exitY=0.011;exitDx=0;exitDy=0;entryX=1.021;entryY=1.231;entryDx=0;entryDy=0;entryPerimeter=0;exitPerimeter=0;" parent="44" source="35" target="14" edge="1">
                    <mxGeometry width="80" relative="1" as="geometry">
                        <mxPoint x="472.6190476190476" y="500" as="sourcePoint"/>
                        <mxPoint x="375.9968095238095" y="336.28600000000006" as="targetPoint"/>
                    </mxGeometry>
                </mxCell>
                <mxCell id="43" value="Client" style="text;html=1;strokeColor=none;fillColor=none;align=center;verticalAlign=middle;whiteSpace=wrap;rounded=0;fontSize=22;" parent="44" vertex="1">
                    <mxGeometry x="287.35238095238094" width="245.76190476190476" height="70" as="geometry"/>
                </mxCell>
                <mxCell id="81" value="" style="group" parent="1" vertex="1" connectable="0">
                    <mxGeometry x="944" y="560" width="660" height="270" as="geometry"/>
                </mxCell>
                <mxCell id="65" value="" style="rounded=1;whiteSpace=wrap;html=1;fontSize=22;" parent="81" vertex="1">
                    <mxGeometry width="660" height="270" as="geometry"/>
                </mxCell>
                <mxCell id="66" value="Encapsulated quack behavior" style="text;html=1;strokeColor=none;fillColor=none;align=center;verticalAlign=middle;whiteSpace=wrap;rounded=0;fontSize=22;" parent="81" vertex="1">
                    <mxGeometry x="175" width="310" height="30" as="geometry"/>
                </mxCell>
                <mxCell id="67" value="&lt;&lt; interface &gt;&gt;&#10;QuackBehavior" style="swimlane;fontStyle=1;align=center;verticalAlign=top;childLayout=stackLayout;horizontal=1;startSize=40;horizontalStack=0;resizeParent=1;resizeParentMax=0;resizeLast=0;collapsible=1;marginBottom=0;fontSize=12;" parent="81" vertex="1">
                    <mxGeometry x="249.5" y="40" width="161" height="66" as="geometry"/>
                </mxCell>
                <mxCell id="68" value="+ quack(): void" style="text;strokeColor=none;fillColor=none;align=left;verticalAlign=top;spacingLeft=4;spacingRight=4;overflow=hidden;rotatable=0;points=[[0,0.5],[1,0.5]];portConstraint=eastwest;fontSize=12;" parent="67" vertex="1">
                    <mxGeometry y="40" width="161" height="26" as="geometry"/>
                </mxCell>
                <mxCell id="69" value="Quack" style="swimlane;fontStyle=1;align=center;verticalAlign=top;childLayout=stackLayout;horizontal=1;startSize=26;horizontalStack=0;resizeParent=1;resizeParentMax=0;resizeLast=0;collapsible=1;marginBottom=0;fontSize=12;" parent="81" vertex="1">
                    <mxGeometry x="10" y="195" width="190" height="52" as="geometry"/>
                </mxCell>
                <mxCell id="70" value="+ quack(): void // Duck quacking" style="text;strokeColor=none;fillColor=none;align=left;verticalAlign=top;spacingLeft=4;spacingRight=4;overflow=hidden;rotatable=0;points=[[0,0.5],[1,0.5]];portConstraint=eastwest;fontSize=12;" parent="69" vertex="1">
                    <mxGeometry y="26" width="190" height="26" as="geometry"/>
                </mxCell>
                <mxCell id="71" value="Squeak" style="swimlane;fontStyle=1;align=center;verticalAlign=top;childLayout=stackLayout;horizontal=1;startSize=26;horizontalStack=0;resizeParent=1;resizeParentMax=0;resizeLast=0;collapsible=1;marginBottom=0;fontSize=12;" parent="81" vertex="1">
                    <mxGeometry x="230" y="195" width="200" height="52" as="geometry"/>
                </mxCell>
                <mxCell id="72" value="+ quack(): void // duck squeaks" style="text;strokeColor=none;fillColor=none;align=left;verticalAlign=top;spacingLeft=4;spacingRight=4;overflow=hidden;rotatable=0;points=[[0,0.5],[1,0.5]];portConstraint=eastwest;fontSize=12;" parent="71" vertex="1">
                    <mxGeometry y="26" width="200" height="26" as="geometry"/>
                </mxCell>
                <mxCell id="73" value="HAS-A" style="endArrow=open;endSize=12;dashed=1;html=1;fontSize=12;entryX=0.234;entryY=1.199;entryDx=0;entryDy=0;entryPerimeter=0;exitX=0.452;exitY=-0.044;exitDx=0;exitDy=0;exitPerimeter=0;" parent="81" source="69" target="68" edge="1">
                    <mxGeometry width="160" relative="1" as="geometry">
                        <mxPoint x="-50" y="440" as="sourcePoint"/>
                        <mxPoint x="150" y="430" as="targetPoint"/>
                    </mxGeometry>
                </mxCell>
                <mxCell id="74" value="HAS-A" style="endArrow=open;endSize=12;dashed=1;html=1;fontSize=12;entryX=0.497;entryY=1.022;entryDx=0;entryDy=0;entryPerimeter=0;exitX=0.5;exitY=0;exitDx=0;exitDy=0;" parent="81" source="71" target="68" edge="1">
                    <mxGeometry width="160" relative="1" as="geometry">
                        <mxPoint x="122.32000000000016" y="197.712" as="sourcePoint"/>
                        <mxPoint x="185.8800000000001" y="121.17399999999998" as="targetPoint"/>
                    </mxGeometry>
                </mxCell>
                <mxCell id="76" value="MuteDuck" style="swimlane;fontStyle=1;align=center;verticalAlign=top;childLayout=stackLayout;horizontal=1;startSize=26;horizontalStack=0;resizeParent=1;resizeParentMax=0;resizeLast=0;collapsible=1;marginBottom=0;fontSize=12;" parent="81" vertex="1">
                    <mxGeometry x="440" y="195" width="180" height="52" as="geometry"/>
                </mxCell>
                <mxCell id="77" value="+ quack(): void // cant squeak" style="text;strokeColor=none;fillColor=none;align=left;verticalAlign=top;spacingLeft=4;spacingRight=4;overflow=hidden;rotatable=0;points=[[0,0.5],[1,0.5]];portConstraint=eastwest;fontSize=12;" parent="76" vertex="1">
                    <mxGeometry y="26" width="180" height="26" as="geometry"/>
                </mxCell>
                <mxCell id="78" value="HAS-A" style="endArrow=open;endSize=12;dashed=1;html=1;fontSize=12;entryX=0.919;entryY=1.049;entryDx=0;entryDy=0;entryPerimeter=0;exitX=0.5;exitY=0;exitDx=0;exitDy=0;" parent="81" source="76" target="68" edge="1">
                    <mxGeometry width="160" relative="1" as="geometry">
                        <mxPoint x="332.32000000000016" y="197.712" as="sourcePoint"/>
                        <mxPoint x="539.5169999999998" y="106.57200000000012" as="targetPoint"/>
                    </mxGeometry>
                </mxCell>
                <mxCell id="82" value="" style="group" parent="1" vertex="1" connectable="0">
                    <mxGeometry x="994" y="190" width="560" height="270" as="geometry"/>
                </mxCell>
                <mxCell id="45" value="" style="rounded=1;whiteSpace=wrap;html=1;fontSize=22;" parent="82" vertex="1">
                    <mxGeometry width="560" height="270" as="geometry"/>
                </mxCell>
                <mxCell id="46" value="Encapsulated fly behavior" style="text;html=1;strokeColor=none;fillColor=none;align=center;verticalAlign=middle;whiteSpace=wrap;rounded=0;fontSize=22;" parent="82" vertex="1">
                    <mxGeometry x="125" width="310" height="30" as="geometry"/>
                </mxCell>
                <mxCell id="47" value="&lt;&lt; interface &gt;&gt;&#10;FlyBehavior" style="swimlane;fontStyle=1;align=center;verticalAlign=top;childLayout=stackLayout;horizontal=1;startSize=40;horizontalStack=0;resizeParent=1;resizeParentMax=0;resizeLast=0;collapsible=1;marginBottom=0;fontSize=12;" parent="82" vertex="1">
                    <mxGeometry x="101" y="40" width="320" height="66" as="geometry"/>
                </mxCell>
                <mxCell id="50" value="+ fly(): void" style="text;strokeColor=none;fillColor=none;align=left;verticalAlign=top;spacingLeft=4;spacingRight=4;overflow=hidden;rotatable=0;points=[[0,0.5],[1,0.5]];portConstraint=eastwest;fontSize=12;" parent="47" vertex="1">
                    <mxGeometry y="40" width="320" height="26" as="geometry"/>
                </mxCell>
                <mxCell id="56" value="FlyWithWings" style="swimlane;fontStyle=1;align=center;verticalAlign=top;childLayout=stackLayout;horizontal=1;startSize=26;horizontalStack=0;resizeParent=1;resizeParentMax=0;resizeLast=0;collapsible=1;marginBottom=0;fontSize=12;" parent="82" vertex="1">
                    <mxGeometry x="40" y="190" width="160" height="52" as="geometry"/>
                </mxCell>
                <mxCell id="59" value="+ fly(): void // Flying duck" style="text;strokeColor=none;fillColor=none;align=left;verticalAlign=top;spacingLeft=4;spacingRight=4;overflow=hidden;rotatable=0;points=[[0,0.5],[1,0.5]];portConstraint=eastwest;fontSize=12;" parent="56" vertex="1">
                    <mxGeometry y="26" width="160" height="26" as="geometry"/>
                </mxCell>
                <mxCell id="60" value="FlyNoWay" style="swimlane;fontStyle=1;align=center;verticalAlign=top;childLayout=stackLayout;horizontal=1;startSize=26;horizontalStack=0;resizeParent=1;resizeParentMax=0;resizeLast=0;collapsible=1;marginBottom=0;fontSize=12;" parent="82" vertex="1">
                    <mxGeometry x="310" y="190" width="160" height="52" as="geometry"/>
                </mxCell>
                <mxCell id="61" value="+ fly(): void // Do nothing" style="text;strokeColor=none;fillColor=none;align=left;verticalAlign=top;spacingLeft=4;spacingRight=4;overflow=hidden;rotatable=0;points=[[0,0.5],[1,0.5]];portConstraint=eastwest;fontSize=12;" parent="60" vertex="1">
                    <mxGeometry y="26" width="160" height="26" as="geometry"/>
                </mxCell>
                <mxCell id="63" value="HAS-A" style="endArrow=open;endSize=12;dashed=1;html=1;fontSize=12;entryX=0.234;entryY=1.199;entryDx=0;entryDy=0;entryPerimeter=0;exitX=0.452;exitY=-0.044;exitDx=0;exitDy=0;exitPerimeter=0;" parent="82" source="56" target="50" edge="1">
                    <mxGeometry width="160" relative="1" as="geometry">
                        <mxPoint x="-50" y="440" as="sourcePoint"/>
                        <mxPoint x="150" y="430" as="targetPoint"/>
                    </mxGeometry>
                </mxCell>
                <mxCell id="64" value="HAS-A" style="endArrow=open;endSize=12;dashed=1;html=1;fontSize=12;entryX=0.797;entryY=1.024;entryDx=0;entryDy=0;entryPerimeter=0;exitX=0.5;exitY=0;exitDx=0;exitDy=0;" parent="82" source="60" target="50" edge="1">
                    <mxGeometry width="160" relative="1" as="geometry">
                        <mxPoint x="122.32000000000016" y="197.712" as="sourcePoint"/>
                        <mxPoint x="185.8800000000001" y="121.17399999999998" as="targetPoint"/>
                    </mxGeometry>
                </mxCell>
                <mxCell id="79" value="" style="endArrow=open;endFill=1;endSize=12;html=1;fontSize=12;entryX=0;entryY=0.25;entryDx=0;entryDy=0;" parent="1" source="5" target="47" edge="1">
                    <mxGeometry width="160" relative="1" as="geometry">
                        <mxPoint x="984" y="300" as="sourcePoint"/>
                        <mxPoint x="1144" y="300" as="targetPoint"/>
                    </mxGeometry>
                </mxCell>
                <mxCell id="80" value="" style="endArrow=open;endFill=1;endSize=12;html=1;fontSize=12;entryX=0;entryY=0.25;entryDx=0;entryDy=0;exitX=1;exitY=0.5;exitDx=0;exitDy=0;" parent="1" source="9" target="67" edge="1">
                    <mxGeometry width="160" relative="1" as="geometry">
                        <mxPoint x="568" y="310.0389805097451" as="sourcePoint"/>
                        <mxPoint x="1105" y="256.5" as="targetPoint"/>
                    </mxGeometry>
                </mxCell>
            </root>
        </mxGraphModel>
    </diagram>
</mxfile>